<svg width="338" height="349" viewBox="0 0 338 349" fill="none" xmlns="http://www.w3.org/2000/svg">
<rect x="1" y="21" width="327" height="327" rx="163.5" stroke="#888888" stroke-width="2" stroke-dasharray="8 8"/>
<path d="M298.368 262C311.884 238.589 319 212.033 319 185C319 157.967 311.884 131.411 298.368 108L208.129 160.099C212.5 167.67 214.801 176.258 214.801 185C214.801 193.742 212.5 202.33 208.129 209.901L298.368 262Z" fill="#F55B19" fill-opacity="0.1"/>
<path d="M165 337C192.033 337 218.589 329.884 242 316.368C265.411 302.852 284.852 283.411 298.368 260L208.129 207.901C203.758 215.471 197.471 221.758 189.901 226.129C182.33 230.5 173.742 232.801 165 232.801L165 337Z" fill="#F55B19" fill-opacity="0.07"/>
<path d="M31.6321 258C45.1484 281.411 64.589 300.852 88 314.368C111.411 327.884 137.967 335 165 335L165 230.801C156.258 230.801 147.67 228.5 140.099 224.129C132.529 219.758 126.242 213.471 121.871 205.901L31.6321 258Z" fill="#F55B19" fill-opacity="0.05"/>
<path d="M31.6321 102C18.1158 125.411 11 151.967 11 179C11 206.033 18.1158 232.589 31.6321 256L121.871 203.901C117.5 196.33 115.199 187.742 115.199 179C115.199 170.258 117.5 161.67 121.871 154.099L31.6321 102Z" fill="#F55B19" fill-opacity="0.03"/>
<path d="M298.736 106.368C285.219 82.957 265.779 63.5163 242.368 50C218.957 36.4837 192.401 29.3679 165.368 29.3679L165.368 133.402C174.139 133.402 182.755 135.711 190.351 140.096C197.946 144.482 204.254 150.789 208.639 158.385L298.736 106.368Z" fill="#F55B19"/>
<circle cx="165.368" cy="183.368" r="24.7949" transform="rotate(-30 165.368 183.368)" fill="#F55B19"/>
<path d="M165 29C192.033 29 218.589 36.2082 242 49.9C265.411 63.5919 284.852 83.285 298.368 107C311.884 130.715 319 157.616 319 185C319 212.384 311.884 239.285 298.368 263" stroke="#F55B19" stroke-width="4"/>
<path d="M122.294 13.4868L126.324 12.407L126.562 13.2956L121.485 14.6559L119.277 6.41538L120.324 6.13482L122.294 13.4868Z" fill="black"/>
<path d="M148.775 8.88692C148.722 8.81057 148.675 8.7139 148.634 8.59691C148.596 8.47557 148.563 8.34967 148.536 8.21918C148.44 8.34077 148.33 8.45816 148.206 8.57136C148.086 8.68409 147.951 8.78681 147.8 8.87952C147.646 8.97269 147.481 9.05151 147.303 9.11597C147.126 9.18043 146.935 9.22495 146.729 9.24953C146.396 9.28941 146.087 9.2771 145.804 9.2126C145.525 9.14763 145.282 9.04289 145.076 8.89836C144.867 8.75819 144.696 8.58188 144.565 8.36944C144.436 8.15266 144.356 7.91239 144.325 7.64865C144.284 7.30345 144.315 6.9928 144.42 6.7167C144.529 6.44014 144.698 6.19952 144.93 5.99483C145.161 5.79403 145.449 5.62986 145.791 5.50233C146.138 5.37434 146.53 5.28414 146.969 5.23174L148.144 5.09122L148.085 4.5967C148.062 4.40664 148.007 4.24016 147.919 4.09724C147.831 3.95432 147.717 3.83621 147.576 3.74291C147.435 3.6535 147.268 3.59083 147.075 3.55491C146.886 3.51852 146.677 3.51401 146.448 3.54137C146.235 3.56688 146.046 3.61699 145.882 3.69169C145.721 3.76593 145.588 3.85461 145.483 3.95774C145.377 4.06086 145.299 4.17842 145.248 4.31042C145.2 4.43807 145.184 4.56784 145.2 4.69971L144.118 4.8291C144.094 4.59979 144.125 4.36788 144.211 4.13335C144.301 3.89835 144.444 3.67866 144.64 3.47428C144.833 3.27423 145.076 3.10159 145.369 2.95635C145.666 2.81065 146.011 2.71438 146.403 2.66754C146.759 2.62488 147.096 2.62983 147.413 2.68241C147.73 2.7311 148.011 2.82927 148.257 2.97691C148.499 3.12889 148.7 3.3291 148.86 3.57755C149.02 3.82599 149.12 4.12669 149.163 4.47964L149.512 7.40606C149.538 7.61551 149.584 7.83621 149.651 8.06817C149.717 8.29625 149.796 8.49339 149.887 8.65958L149.898 8.75266L148.775 8.88692ZM146.774 8.29406C146.984 8.26902 147.176 8.21845 147.352 8.14235C147.528 8.06625 147.686 7.97456 147.827 7.86726C147.964 7.76043 148.079 7.64428 148.175 7.51882C148.269 7.38948 148.34 7.25904 148.387 7.1275L148.235 5.85337L147.234 5.97302C146.862 6.01754 146.54 6.08946 146.269 6.18879C146.001 6.28377 145.793 6.40694 145.646 6.55829C145.541 6.66529 145.465 6.7865 145.418 6.92191C145.375 7.05686 145.364 7.20579 145.383 7.36869C145.402 7.52384 145.444 7.66433 145.51 7.79017C145.58 7.91556 145.673 8.01853 145.789 8.09909C145.905 8.18354 146.046 8.2434 146.212 8.27869C146.377 8.31398 146.565 8.3191 146.774 8.29406Z" fill="black"/>
<path d="M168.446 7.43898L168.597 1.10093L169.569 1.12407L169.623 2.06312C169.72 1.93258 169.824 1.81394 169.936 1.70719C170.052 1.59664 170.174 1.50185 170.301 1.42281C170.491 1.30231 170.696 1.21147 170.917 1.15029C171.141 1.08529 171.376 1.05377 171.622 1.05572C171.954 1.06363 172.254 1.11764 172.521 1.21778C172.792 1.31801 173.021 1.46999 173.208 1.6737C173.394 1.87742 173.535 2.13474 173.629 2.44566C173.727 2.75278 173.771 3.11721 173.761 3.53896L173.665 7.56322L172.582 7.53742L172.677 3.5366C172.683 3.25543 172.658 3.01647 172.6 2.81973C172.542 2.62298 172.454 2.46264 172.336 2.3387C172.214 2.21466 172.064 2.12317 171.885 2.06423C171.711 2.00537 171.509 1.9732 171.278 1.96772C171.079 1.96298 170.893 1.98785 170.72 2.04234C170.546 2.09292 170.386 2.1653 170.24 2.25949C170.12 2.34262 170.009 2.43959 169.905 2.55043C169.804 2.66135 169.715 2.78427 169.638 2.91919L169.53 7.46477L168.446 7.43898Z" fill="black"/>
<path d="M192.62 5.6925C192.698 5.22638 192.828 4.80851 193.009 4.43888C193.195 4.06604 193.421 3.75747 193.688 3.51319C193.951 3.26826 194.249 3.09273 194.584 2.98661C194.919 2.8805 195.277 2.8595 195.658 2.92363C196.032 2.98647 196.347 3.10476 196.603 3.27853C196.863 3.44908 197.076 3.67094 197.24 3.94411L197.785 0.702513L198.854 0.88227L197.361 9.75766L196.379 9.59248L196.443 8.92598C196.193 9.14525 195.912 9.29607 195.601 9.37846C195.29 9.46085 194.942 9.46966 194.557 9.40488C194.179 9.3414 193.85 9.20285 193.569 8.98924C193.292 8.77628 193.069 8.50913 192.902 8.18779C192.734 7.86646 192.623 7.50314 192.568 7.09784C192.514 6.68869 192.524 6.26069 192.6 5.81384L192.62 5.6925ZM193.669 5.9936C193.617 6.29792 193.602 6.59234 193.621 6.87685C193.641 7.16137 193.702 7.41929 193.806 7.65063C193.906 7.88132 194.051 8.07611 194.242 8.23501C194.434 8.39006 194.678 8.49252 194.975 8.5424C195.333 8.60264 195.643 8.57162 195.906 8.44934C196.168 8.32707 196.391 8.14084 196.576 7.89065L197.064 4.98997C196.968 4.71241 196.816 4.47298 196.608 4.27167C196.401 4.06651 196.122 3.93446 195.772 3.87551C195.471 3.82499 195.203 3.84322 194.966 3.93022C194.734 4.01786 194.532 4.15435 194.363 4.3397C194.188 4.52824 194.045 4.75569 193.933 5.02204C193.822 5.28453 193.74 5.56793 193.689 5.87225L193.669 5.9936Z" fill="black"/>
<path d="M217.771 7.76114L220.857 8.74774L219.212 13.8936L221.182 14.5234L220.897 15.4163L215.84 13.7999L216.126 12.907L218.18 13.5635L219.537 9.31625L217.483 8.6597L217.771 7.76114ZM220.197 6.78982C220.226 6.70052 220.266 6.62097 220.317 6.55116C220.371 6.48254 220.437 6.42983 220.515 6.39305C220.579 6.36015 220.652 6.34256 220.735 6.34031C220.822 6.33552 220.915 6.34858 221.011 6.37951C221.108 6.41043 221.189 6.45267 221.254 6.50623C221.32 6.55606 221.369 6.61289 221.402 6.67673C221.445 6.74785 221.469 6.82723 221.474 6.91488C221.479 7.00254 221.466 7.09287 221.436 7.18589C221.383 7.35332 221.286 7.4762 221.146 7.55452C221.006 7.63284 220.834 7.63929 220.629 7.57388C220.421 7.50727 220.283 7.4015 220.214 7.25658C220.149 7.11284 220.144 6.95725 220.197 6.78982Z" fill="black"/>
<path d="M238.142 21.8714L240.912 16.1688L241.787 16.5938L241.446 17.4704C241.588 17.3919 241.732 17.3273 241.878 17.2767C242.03 17.2243 242.18 17.1886 242.328 17.1694C242.551 17.1389 242.776 17.1415 243.001 17.1774C243.232 17.2114 243.46 17.2805 243.683 17.3845C243.981 17.5296 244.231 17.7032 244.433 17.9052C244.638 18.1091 244.783 18.3424 244.868 18.6052C244.953 18.868 244.974 19.1604 244.93 19.4824C244.892 19.8025 244.781 20.1523 244.597 20.5318L242.838 24.1526L241.863 23.679L243.611 20.0792C243.734 19.8263 243.81 19.5983 243.839 19.3953C243.868 19.1923 243.855 19.0099 243.799 18.848C243.739 18.6845 243.641 18.5389 243.503 18.4112C243.369 18.2852 243.198 18.1718 242.991 18.0711C242.812 17.9841 242.632 17.9294 242.452 17.907C242.273 17.8811 242.098 17.8804 241.925 17.9051C241.782 17.9312 241.64 17.973 241.499 18.0306C241.362 18.0898 241.23 18.1647 241.103 18.2552L239.117 22.3451L238.142 21.8714Z" fill="black"/>
<path d="M260.861 30.3283C261.126 29.9368 261.416 29.6095 261.731 29.3463C262.052 29.082 262.382 28.8931 262.723 28.7795C263.064 28.666 263.409 28.6305 263.758 28.673C264.106 28.7155 264.444 28.8474 264.771 29.0685C264.981 29.2108 265.157 29.3653 265.299 29.5321C265.444 29.701 265.556 29.8806 265.635 30.0707C265.679 30.1718 265.714 30.2777 265.738 30.3884C265.765 30.5012 265.784 30.6173 265.792 30.7365L266.224 30.1935L267.039 30.7453L263.561 35.884C263.327 36.2301 263.064 36.5002 262.772 36.6943C262.483 36.8905 262.179 37.0168 261.858 37.073C261.533 37.1271 261.202 37.1107 260.865 37.0238C260.528 36.937 260.194 36.7819 259.864 36.5586C259.728 36.4666 259.584 36.3453 259.431 36.1947C259.276 36.0474 259.134 35.8779 259.004 35.6863C258.869 35.4958 258.756 35.2854 258.667 35.0551C258.581 34.8269 258.536 34.5866 258.532 34.3342L259.363 34.1108C259.383 34.3179 259.42 34.5062 259.476 34.6756C259.529 34.8482 259.596 35.0025 259.679 35.1385C259.761 35.2745 259.855 35.3944 259.959 35.498C260.061 35.6049 260.172 35.6988 260.292 35.7799C260.505 35.9244 260.719 36.0239 260.932 36.0785C261.145 36.1331 261.353 36.1421 261.557 36.1056C261.756 36.0702 261.946 35.987 262.129 35.8561C262.312 35.7252 262.48 35.5465 262.634 35.3201L262.939 34.8688C262.819 34.9005 262.698 34.9224 262.576 34.9345C262.458 34.9489 262.339 34.9507 262.219 34.9401C262.032 34.9226 261.844 34.8774 261.652 34.8045C261.459 34.7349 261.267 34.6355 261.076 34.5064C260.756 34.2896 260.512 34.0257 260.345 33.7147C260.178 33.4037 260.087 33.0682 260.071 32.7084C260.052 32.3464 260.103 31.9708 260.225 31.5817C260.349 31.1892 260.538 30.8054 260.792 30.4302L260.861 30.3283ZM261.69 31.0377C261.517 31.2933 261.379 31.5534 261.275 31.8182C261.175 32.0851 261.124 32.3453 261.122 32.5988C261.117 32.8501 261.168 33.0877 261.276 33.3117C261.386 33.5324 261.566 33.727 261.815 33.8956C261.97 34.0007 262.121 34.0771 262.268 34.1247C262.421 34.1712 262.57 34.1945 262.716 34.1944C262.859 34.1922 263.001 34.1704 263.143 34.1292C263.284 34.0879 263.422 34.0304 263.557 33.9565L265.185 31.5497C265.202 31.4003 265.202 31.2541 265.185 31.1109C265.169 30.9678 265.134 30.8284 265.079 30.6925C265.023 30.56 264.945 30.4343 264.846 30.3155C264.75 30.1935 264.627 30.0821 264.478 29.9814C264.226 29.8106 263.974 29.7157 263.723 29.6966C263.475 29.6797 263.235 29.7203 263.004 29.8183C262.767 29.9174 262.542 30.0648 262.329 30.2605C262.122 30.4552 261.932 30.6803 261.759 30.9358L261.69 31.0377Z" fill="black"/>
<path d="M298.936 62.686L296.297 64.8647L295.607 64.0288L302.186 58.5971L303.946 60.7297C304.184 61.0299 304.367 61.347 304.496 61.6812C304.628 62.0184 304.693 62.3548 304.691 62.6904C304.69 63.026 304.614 63.3517 304.465 63.6677C304.318 63.9866 304.086 64.2766 303.77 64.5378C303.454 64.7989 303.125 64.9715 302.784 65.0554C302.449 65.14 302.116 65.1512 301.786 65.0892C301.456 65.0272 301.138 64.8997 300.832 64.7067C300.528 64.5168 300.253 64.2755 300.006 63.9828L298.936 62.686ZM299.623 62.119L300.693 63.4157C300.855 63.606 301.032 63.7589 301.224 63.8743C301.418 63.9872 301.62 64.0591 301.828 64.0901C302.035 64.121 302.244 64.1062 302.452 64.0456C302.666 63.9856 302.872 63.8735 303.071 63.7093C303.27 63.5452 303.42 63.3626 303.523 63.1615C303.628 62.9634 303.687 62.7596 303.702 62.5501C303.714 62.3376 303.681 62.1236 303.605 61.9082C303.531 61.6958 303.416 61.492 303.26 61.2967L302.189 60L299.623 62.119Z" fill="black"/>
<path d="M312.217 86.4874C312.265 86.4081 312.333 86.3252 312.423 86.2388C312.517 86.1537 312.618 86.0716 312.725 85.9925C312.575 85.956 312.423 85.9048 312.268 85.8389C312.116 85.7763 311.966 85.696 311.819 85.5979C311.67 85.4964 311.53 85.3785 311.398 85.2441C311.265 85.1097 311.145 84.9541 311.038 84.7773C310.863 84.4904 310.746 84.2049 310.687 83.9206C310.63 83.6396 310.625 83.3753 310.67 83.1278C310.711 82.879 310.8 82.6506 310.939 82.4426C311.083 82.2359 311.268 82.0635 311.495 81.9252C311.792 81.7443 312.088 81.6441 312.382 81.6246C312.679 81.6084 312.969 81.663 313.251 81.7884C313.53 81.9157 313.798 82.1088 314.057 82.3676C314.317 82.6297 314.562 82.9492 314.792 83.3261L315.408 84.3368L315.833 84.0776C315.997 83.978 316.125 83.8585 316.219 83.7192C316.312 83.5798 316.372 83.4267 316.398 83.2597C316.421 83.0947 316.409 82.9169 316.361 82.7263C316.316 82.5391 316.233 82.347 316.113 82.1502C316.001 81.9668 315.877 81.8159 315.741 81.6976C315.607 81.5827 315.471 81.4985 315.334 81.4452C315.196 81.3919 315.056 81.3694 314.915 81.3778C314.779 81.3875 314.654 81.4268 314.541 81.496L313.974 80.5654C314.173 80.4488 314.397 80.3809 314.646 80.3617C314.897 80.3459 315.156 80.3846 315.423 80.4779C315.685 80.5698 315.943 80.7191 316.197 80.9257C316.453 81.1356 316.684 81.409 316.889 81.7459C317.076 82.0527 317.212 82.3613 317.296 82.6716C317.383 82.9798 317.41 83.2764 317.378 83.5613C317.341 83.845 317.242 84.111 317.082 84.3593C316.923 84.6076 316.691 84.8243 316.387 85.0093L313.871 86.5432C313.691 86.653 313.509 86.7866 313.326 86.944C313.146 87.0993 312.999 87.2527 312.886 87.4043L312.806 87.4531L312.217 86.4874ZM311.926 84.4214C312.035 84.6015 312.161 84.7557 312.304 84.884C312.446 85.0123 312.595 85.1181 312.751 85.2015C312.905 85.2815 313.059 85.3387 313.212 85.3731C313.369 85.4055 313.518 85.4159 313.657 85.4042L314.753 84.7363L314.228 83.8757C314.033 83.5555 313.834 83.2926 313.631 83.087C313.433 82.8828 313.235 82.7451 313.036 82.6742C312.895 82.6229 312.753 82.6041 312.61 82.6178C312.47 82.6349 312.329 82.6861 312.189 82.7715C312.056 82.8528 311.946 82.9497 311.859 83.0622C311.774 83.1781 311.719 83.3054 311.694 83.4442C311.665 83.5851 311.669 83.7382 311.706 83.9034C311.743 84.0686 311.816 84.2413 311.926 84.4214Z" fill="black"/>
<path d="M324.59 102.328C325.025 102.142 325.445 102.023 325.853 101.972C326.265 101.923 326.645 101.943 326.994 102.031C327.342 102.12 327.651 102.277 327.921 102.501C328.192 102.725 328.404 103.019 328.56 103.381C328.66 103.615 328.724 103.84 328.753 104.057C328.784 104.278 328.781 104.489 328.745 104.692C328.728 104.801 328.7 104.909 328.66 105.015C328.622 105.125 328.575 105.232 328.518 105.337L329.174 105.113L329.562 106.018L323.857 108.461C323.473 108.625 323.106 108.711 322.756 108.716C322.407 108.725 322.082 108.667 321.782 108.54C321.48 108.411 321.21 108.218 320.973 107.962C320.736 107.707 320.539 107.396 320.383 107.03C320.318 106.879 320.262 106.699 320.215 106.49C320.164 106.282 320.136 106.062 320.131 105.831C320.12 105.598 320.139 105.36 320.188 105.118C320.239 104.879 320.331 104.653 320.465 104.438L321.284 104.7C321.189 104.885 321.119 105.063 321.074 105.236C321.025 105.41 320.999 105.576 320.995 105.735C320.99 105.894 321.004 106.045 321.036 106.189C321.064 106.334 321.107 106.473 321.164 106.606C321.265 106.843 321.391 107.042 321.54 107.203C321.69 107.364 321.861 107.485 322.052 107.564C322.238 107.642 322.444 107.675 322.668 107.664C322.893 107.652 323.131 107.593 323.382 107.485L323.883 107.271C323.765 107.232 323.651 107.185 323.542 107.13C323.435 107.078 323.334 107.015 323.239 106.941C323.091 106.826 322.957 106.686 322.835 106.521C322.71 106.358 322.602 106.17 322.512 105.959C322.36 105.603 322.297 105.249 322.325 104.898C322.353 104.546 322.457 104.214 322.639 103.903C322.818 103.588 323.064 103.3 323.377 103.038C323.694 102.775 324.06 102.555 324.477 102.376L324.59 102.328ZM324.904 103.373C324.62 103.494 324.363 103.638 324.133 103.805C323.904 103.975 323.72 104.166 323.582 104.379C323.442 104.587 323.356 104.815 323.326 105.062C323.299 105.307 323.345 105.568 323.463 105.844C323.537 106.017 323.623 106.163 323.721 106.282C323.824 106.404 323.937 106.504 324.06 106.583C324.182 106.658 324.313 106.717 324.454 106.759C324.595 106.8 324.742 106.826 324.896 106.837L327.567 105.693C327.662 105.576 327.741 105.453 327.804 105.324C327.868 105.195 327.914 105.058 327.942 104.915C327.966 104.773 327.968 104.625 327.949 104.471C327.934 104.317 327.891 104.156 327.82 103.991C327.7 103.711 327.54 103.495 327.339 103.343C327.139 103.195 326.916 103.1 326.668 103.057C326.415 103.012 326.146 103.015 325.862 103.064C325.582 103.116 325.301 103.203 325.017 103.324L324.904 103.373Z" fill="black"/>
<path d="M330.889 128.811C330.773 128.381 330.741 127.965 330.791 127.564C330.842 127.166 330.965 126.803 331.161 126.476C331.356 126.148 331.616 125.864 331.939 125.624C332.263 125.384 332.638 125.206 333.065 125.092L333.302 125.028C333.797 124.896 334.259 124.857 334.691 124.911C335.125 124.965 335.514 125.087 335.856 125.278C336.194 125.467 336.479 125.708 336.711 126.001C336.945 126.299 337.109 126.623 337.203 126.974C337.321 127.415 337.347 127.821 337.28 128.191C337.218 128.563 337.082 128.895 336.873 129.185C336.66 129.477 336.385 129.725 336.047 129.928C335.71 130.136 335.329 130.297 334.902 130.411L334.433 130.537L333.26 126.162L333.221 126.172C332.93 126.279 332.683 126.407 332.481 126.559C332.28 126.714 332.114 126.896 331.984 127.104C331.844 127.32 331.752 127.559 331.709 127.821C331.666 128.083 331.683 128.356 331.759 128.639C331.859 129.012 332.023 129.324 332.252 129.574C332.481 129.824 332.745 130.012 333.046 130.138L332.719 130.911C332.355 130.79 331.998 130.558 331.647 130.216C331.301 129.876 331.048 129.407 330.889 128.811ZM336.342 127.204C336.286 126.993 336.192 126.804 336.063 126.636C335.937 126.468 335.78 126.328 335.592 126.216C335.401 126.106 335.182 126.027 334.934 125.98C334.692 125.936 334.424 125.931 334.13 125.965L335.012 129.259L335.063 129.246C335.252 129.195 335.444 129.105 335.64 128.976C335.84 128.845 336.002 128.695 336.126 128.524C336.25 128.353 336.335 128.157 336.38 127.934C336.427 127.716 336.414 127.472 336.342 127.204Z" fill="black"/>
</svg>
